<svg width="24" height="24" viewBox="0 0 24 24" xmlns="http://www.w3.org/2000/svg">
<path fill-rule="evenodd" clip-rule="evenodd" d="M5.25 2.5C3.73122 2.5 2.5 3.73122 2.5 5.25V15.4995C2.5 17.0183 3.73122 18.2495 5.25 18.2495H9.50539C9.91961 18.2495 10.2554 17.9137 10.2554 17.4995C10.2554 17.0853 9.91961 16.7495 9.50539 16.7495H5.25C4.55964 16.7495 4 16.1899 4 15.4995V5.25C4 4.55964 4.55964 4 5.25 4H15.4995C16.1899 4 16.7495 4.55964 16.7495 5.25V9.50993C16.7495 9.92414 17.0853 10.2599 17.4995 10.2599C17.9137 10.2599 18.2495 9.92414 18.2495 9.50993V5.25C18.2495 3.73122 17.0183 2.5 15.4995 2.5H5.25ZM13.4995 12.9995H19.4995C19.7757 12.9995 19.9995 13.2234 19.9995 13.4995V19.4995C19.9995 19.7757 19.7757 19.9995 19.4995 19.9995H13.4995C13.2234 19.9995 12.9995 19.7757 12.9995 19.4995V13.4995C12.9995 13.2234 13.2234 12.9995 13.4995 12.9995ZM11.4995 13.4995C11.4995 12.3949 12.3949 11.4995 13.4995 11.4995H19.4995C20.6041 11.4995 21.4995 12.3949 21.4995 13.4995V19.4995C21.4995 20.6041 20.6041 21.4995 19.4995 21.4995H13.4995C12.3949 21.4995 11.4995 20.6041 11.4995 19.4995V13.4995Z" />
</svg>