<svg width="24" height="24" viewBox="0 0 24 24" xmlns="http://www.w3.org/2000/svg">
<path fill-rule="evenodd" clip-rule="evenodd" d="M3 4.75C3 3.7835 3.7835 3 4.75 3L8.24978 3.00369C8.664 3.00369 8.99978 3.33948 8.99978 3.75369C8.99978 4.1679 8.664 4.50369 8.24978 4.50369L4.75 4.5C4.61193 4.5 4.5 4.61193 4.5 4.75V8.25C4.5 8.66421 4.16421 9 3.75 9C3.33579 9 3 8.66421 3 8.25V4.75Z" />
<path fill-rule="evenodd" clip-rule="evenodd" d="M19.25 3C20.2165 3 21 3.7835 21 4.75L20.9963 8.24978C20.9963 8.664 20.6605 8.99978 20.2463 8.99978C19.8321 8.99978 19.4963 8.664 19.4963 8.24978L19.5 4.75C19.5 4.61193 19.3881 4.5 19.25 4.5H15.75C15.3358 4.5 15 4.16421 15 3.75C15 3.33579 15.3358 3 15.75 3L19.25 3Z" />
<path fill-rule="evenodd" clip-rule="evenodd" d="M4.75 21C3.7835 21 3 20.2165 3 19.25L3.00369 15.7502C3.00369 15.336 3.33948 15.0002 3.75369 15.0002C4.1679 15.0002 4.50369 15.336 4.50369 15.7502L4.5 19.25C4.5 19.3881 4.61193 19.5 4.75 19.5H8.25C8.66421 19.5 9 19.8358 9 20.25C9 20.6642 8.66421 21 8.25 21H4.75Z" />
<path fill-rule="evenodd" clip-rule="evenodd" d="M21 19.25C21 20.2165 20.2165 21 19.25 21L15.7502 20.9963C15.336 20.9963 15.0002 20.6605 15.0002 20.2463C15.0002 19.8321 15.336 19.4963 15.7502 19.4963L19.25 19.5C19.3881 19.5 19.5 19.3881 19.5 19.25V15.75C19.5 15.3358 19.8358 15 20.25 15C20.6642 15 21 15.3358 21 15.75V19.25Z" />
</svg>